<?xml version="1.0" encoding="utf-8"?>
<!-- Generator: Adobe Illustrator 18.0.0, SVG Export Plug-In . SVG Version: 6.00 Build 0)  -->
<!DOCTYPE svg PUBLIC "-//W3C//DTD SVG 1.1//EN" "http://www.w3.org/Graphics/SVG/1.1/DTD/svg11.dtd">
<svg version="1.1" id="Layer_1" xmlns="http://www.w3.org/2000/svg" xmlns:xlink="http://www.w3.org/1999/xlink" x="0px" y="0px"
	 viewBox="0 0 417.7 510.9" enable-background="new 0 0 417.7 510.9" xml:space="preserve">
<path fill="#010202" d="M200.3,413.1h2.6h1.7v7.6c0,0-2.2-1.7-2.2-2.1c0.1-0.4-1.4-2.6-1.4-2.6L200.3,413.1z"/>
<g>
	<g>
		<g>
			<path fill="#010202" d="M101.4,473.6c-0.4-1.9-0.7-2.9-1.1-4.9c-0.5-2-0.7-3.1-1.1-5.1c-0.4-1.8-0.6-2.8-1-4.6
				c-0.1-0.3-0.1-1.4-0.1-3.3c0-1,0-1.8,0-2.5c0-0.7-0.1-1.2-0.2-1.6c-1.6,3.5-2.3,5.3-3.9,8.8c-1.5,3-2.2,4.4-3.6,7.4
				c-2,4.2-3.1,6.2-5.1,10.4c-2.1-1-3.2-1.5-5.3-2.6c0.7-1.5,1-2.3,1.6-3.8c0.1-0.3,0.3-0.6,0.5-0.7c0.1-0.2,0.2-0.3,0.4-0.4
				c0.9-1.8,1.4-2.8,2.3-4.6c0.9-1.7,1.3-2.6,2.2-4.3c2.3-4.1,3.4-6.1,5.6-10.2c0.5-1,0.7-1.5,1.2-2.5c0.4-1,0.7-1.5,1.1-2.4
				c0.8-1.7,1.3-2.5,2.1-4.2c0.2-0.5,0.6-1.2,1-2.2c0.5-0.9,0.8-1.5,0.9-1.9c1.9,0.8,2.9,1.2,4.9,2c-0.2,3-0.3,4.5-0.4,7.4
				c-0.1,2.1,0,3.6,0,4.5c0.3,3,0.5,4.5,0.8,7.6c0.4,2.6,0.8,4.9,1.2,6.7c0.3-0.6,0.4-1,0.7-1.6c0.7-1.4,1-2.2,1.6-3.6
				c0.3-0.7,0.4-1,0.7-1.7c0.1-0.3,0.3-0.6,0.4-1c0.2-0.4,0.4-0.7,0.6-1.1c0.4-0.7,0.6-1.1,1-1.8c0.2-0.4,0.3-0.5,0.4-0.9
				c1.6-4,2.4-5.9,3.9-9.9c2.1,0.9,3.2,1.3,5.3,2.1c-0.8,1.9-1.2,2.9-2,4.9c-1.3,2.9-2,4.3-3.3,7.2c-1.5,3.3-2.3,5-3.9,8.3
				c-0.7,1.4-1,2.1-1.7,3.4c-0.3,0.6-0.4,0.9-0.7,1.5c-0.4,0.8-0.7,1.2-1.1,2c0.1,0.8,0,1.5-0.3,2.3c-0.3,0.6-0.4,0.9-0.7,1.4
				c-0.3,0.6-0.4,0.9-0.7,1.5c-0.1,0.2-0.1,0.3-0.2,0.5c-0.4,0.8-0.5,1.2-0.9,2.1c-0.3,0.9-0.5,1.3-0.9,2.2
				c-0.1,0.3-0.2,0.5-0.3,0.8c-2.3-0.8-3.5-1.2-5.8-2C99.3,479.4,100,477.4,101.4,473.6z"/>
			<path fill="#010202" d="M124.6,483.1c-0.4-1.6-0.7-2.4-1.1-4c-0.3-1.2-0.8-2.3-1.3-3.1c-1.2-2-1.9-3.8-1.9-5.2
				c0.9-0.7,1.3-1,2.2-1.7c1.1-1,1.7-1.5,2.9-2.4c2.1-2,3.1-3,5.1-5.1c2-2.1,3.6-3.6,4.7-4.4c2-1.5,3-2.2,5-3.7
				c0.2-0.1,0.7-0.1,1.2,0c0.4,0.1,0.7,0.2,0.9,0.3c0.2,0.1,0.3,0.2,0.4,0.2c0,0,0,0.1,0,0.1c-0.2,0-0.3,0-0.4-0.1
				c-0.2,0-0.3,0-0.4,0.2c-0.1,0.4,0.2,1.5,1,3.2c0.5,1,0.8,1.4,1.3,2.4c0.5,0.9,1.1,2.8,2,5.6c0.6,2.2,1.6,4.8,3.3,8
				c0.5,1,1.1,2.3,1.6,3.8c0.7,2,1,3.2,0.8,3.7c-2.9,2.1-4.3,3.1-7.3,5c-2.9,2-4.4,3-7.4,4.9c-1.3,1.3-1.9,2-3.2,3.4
				c-1,0.1-1.5,0.1-2.5,0.2C128.7,489.9,127.3,487.7,124.6,483.1z M139.1,461.5c-4.8,4.8-7.2,7.1-12.3,11.7c0.8,1.1,1.7,2.8,2.9,5
				c1.1,2.3,2.1,4,2.7,5.3c0.7,1.2,1.2,2.2,1.7,2.9c1.5-0.9,2.3-1.4,3.8-2.3c1.6-1.1,2.4-1.7,4.1-2.8c0.8-0.5,1.2-0.8,1.9-1.3
				c0.8-0.5,1.1-0.7,1.9-1.2c-0.8-2.3-1.2-3.4-1.9-5.7c-0.9-2.5-1.4-3.7-2.2-6.2C140.8,464.9,140,463.1,139.1,461.5z"/>
			<path fill="#010202" d="M172.6,495c-3.5-2.1-5.2-3.2-8.5-5.4c-0.1,1.4-0.1,2.1-0.2,3.4c0,1.7-0.1,2.6-0.1,4.3
				c-0.6,1.1-0.8,1.7-1.4,2.8c-0.1,0-0.2,0-0.3,0.1c-0.2,0-0.3,0-0.4,0c-0.7-0.1-1-0.2-1.7-0.4c-0.7-0.2-1-0.2-1.7-0.4
				c-0.3,0-0.5-0.1-0.7,0c-0.2-0.9-0.3-1.4-0.5-2.3c0.2-0.9,0.2-1.4,0.4-2.3c0,0,0-0.1,0-0.1c0.9-5.4,1.3-8.1,2.2-13.5
				c0.6-4,0.9-6.1,1.5-10.1c0.1-0.5,0.2-0.7,0.3-1.2c0.1-0.4,0.1-0.6,0.2-0.9c0-0.4,0-0.6,0.1-0.9c0.2-2,0.3-2.9,0.5-4.9
				c-0.1-0.8-0.1-1.3-0.2-2.1c0.5-1.1,0.7-1.7,1.2-2.8c0.9,0.1,1.3,0.2,2.2,0.4c0.8,0.8,1.2,1.2,2,2c1,0.9,1.5,1.3,2.5,2.2
				c0.5,0.7,0.7,1,1.2,1.7c0.9,1,2.3,2.4,4.3,4.2c2.1,1.7,3.1,2.6,5.2,4.3c1.9,1.5,2.8,2.3,4.8,3.8c0.3,0.8,0.5,1.2,0.8,2
				c0,0.2,0,0.3,0.1,0.5c0,0.3-0.4,0.7-1.1,1.2c-0.4,0.3-0.6,0.5-0.8,0.8c-1.2,0.4-3.5,1.6-6.8,3.5c-2.4,1.3-4.6,2.5-6.7,3.8
				c3.5,2,5.2,2.9,8.8,4.8c0.5,0.4,1.9,1.2,4.3,2.2c0.9,0.4,1.8,1.1,2.8,2.2c1,1,1.6,2.1,1.9,3c-1.4,0.5-2.1,0.8-3.5,1.3
				C179.8,499.2,177.4,497.8,172.6,495z M166.8,467.7c-0.6,6.5-0.8,9.7-1.4,16.1c2.8-1.1,4.2-1.7,6.9-2.9c3.4-1.5,5.6-2.7,6.5-3.4
				C173.9,473.8,171.5,471.8,166.8,467.7z"/>
			<path fill="#010202" d="M198.6,502.8c-1.2,0-1.8,0.1-3,0.1c-0.4,0-0.7-0.3-0.8-0.9c-0.1-0.6-0.2-1.1-0.2-1.5c0-0.4,0-0.8,0-1
				c0-1,0.1-1.4,0.1-2.4c0.1-0.8,0.2-1.2,0.3-2.1c0.2-2.7,0.3-4.1,0.4-6.8c0.2-1.3,0.3-1.9,0.4-3.2c0-1.1,0-1.6,0.1-2.7
				c0.2-2.4,0.3-3.5,0.5-5.9c0.1-2.4,0.2-3.6,0.3-6c0.1-1.8,0.2-2.6,0.3-4.4c0.2-2,0.4-2.9,0.6-4.9c2.9,2,4.4,3,7.4,5
				c0,0,0,0.1,0,0.1c0.9,0.7,1.4,1,2.3,1.7c1.3,0.9,2,1.4,3.4,2.3c2.4,1.6,3.6,2.3,6,3.8c2.1,1.5,3.9,3,5.2,4.6
				c0.2,0.5,0.2,0.8,0.4,1.3c0.1,0.4,0.1,0.7,0.2,1.1c0.1,0.7-0.1,1.4-0.6,2.1c-0.7,1-1.1,1.4-1.9,2.4c-1,1.2-1.5,1.8-2.6,2.9
				c-1.9,2.1-2.9,3.1-5,5.2c-1.7,1.7-3.3,3.4-5,5.2C204.1,500.5,202.3,501.3,198.6,502.8z M201,468.8c-0.1,3.7-0.1,5.5-0.1,9.1
				c-0.1,1.7-0.1,2.6-0.2,4.3c0,2.2,0,3.3-0.1,5.4c0,3.8-0.1,5.7-0.1,9.4c2.4-2.1,3.6-3.2,5.9-5.3c2.4-2.2,4.3-4.1,5.7-5.6
				c1.8-1.9,3.4-4,4.8-6c-2.2-1.7-4.8-3.6-7.9-5.7C205.8,472.3,204.1,471.2,201,468.8z"/>
			<path fill="#010202" d="M234.1,501.8c-0.1-2.2-0.2-3.2-0.3-5.4c0.2-0.5,0.2-0.8,0.4-1.3c-0.2-2.2-0.4-3.3-0.6-5.4
				c-0.2-2-0.3-3-0.5-5c-0.3-4.2-0.5-6.3-0.8-10.5c-0.4-3.8-0.6-5.7-1.1-9.6c-0.2-1.9-0.3-2.9-0.5-4.8c2.1-0.2,3.1-0.4,5.1-0.6
				c0.7,5.2,1.1,7.9,1.9,13.1c0.4,3.7,0.6,5.5,1,9.2c0.4,3.1,0.6,4.6,1,7.6c0.3,0.8,0.4,1.2,0.7,1.9c0.1,0.6,0.2,0.9,0.3,1.6
				c0,0.6,0,0.9,0,1.4c-0.2,0.5-0.2,0.7-0.4,1.2c0.2,2.3,0.2,3.4,0.4,5.7C238.1,501.2,236.7,501.4,234.1,501.8z"/>
			<path fill="#010202" d="M270.1,494.6c-3.3-3.1-4.9-4.6-8.1-7.7c-2.1-2-3.1-3-5.1-5.1c-2-2-3-3-5-5c-0.4-0.2-0.6-0.5-0.6-0.8
				c0-0.3,0-0.5,0-0.8c0.1-0.3,0.1-0.4,0.2-0.7c0.8-1.1,2.5-4,4.7-8.8c0.6-1.4,1.7-3.4,3-5.9c1.5-2.9,2.5-4.6,3.1-5.1
				c0.1-0.1,0.3-0.3,0.8-0.5c0.3-0.1,0.6,0,0.9,0.1c0.2,0.3,1.2,1.2,3.3,2.9c1.7,1.3,2.6,2,4.4,3.3c2.4,1.5,3.7,2.3,6.2,3.8
				c0.3,0.7,0.4,1,0.7,1.7c0,0.5-0.4,1-1,1.5c-0.4,0.2-0.6,0.4-1.1,0.6c-1.6-0.8-2.5-1.1-4.1-1.9c-1.6-0.9-2.3-1.4-3.9-2.4
				c-1.5-1-2.3-1.5-3.7-2.6c-1.4,1.5-2.8,3.8-4.3,6.8c-1.3,2.9-2,4.4-3.4,7.3c5.1,5,7.7,7.4,13.2,12.2c0.3-0.2,0.6-0.6,0.8-1.1
				c0.3-0.7,0.6-1.3,0.8-1.7c0.2-0.4,0.3-0.6,0.4-0.8c0.8-0.9,1.8-2.3,3-4.1c0.6-0.9,0.9-1.4,1.5-2.3c0.7-1.1,1.2-1.8,1.4-2.1
				c0.8-0.1,1.2-0.2,2-0.3c0.6,0.4,0.9,0.6,1.6,1c0.2,0.3,0.3,0.5,0.4,0.8c0.2,0.5,0.1,1-0.1,1.5c-0.1,0.2-0.2,0.4-0.4,0.7
				c-0.2,0.3-0.4,0.5-0.6,0.8c0.2,0.6-0.1,1-0.8,1.2c-2.8,5.4-4.3,8.1-7.5,13.4C271.8,494.4,271.3,494.5,270.1,494.6z"/>
			<path fill="#010202" d="M298.7,477.8c-1.3-1-2-1.6-3.3-2.6c-1-0.8-2-1.4-2.9-1.8c-2.2-0.9-3.7-2-4.7-3.1c0.3-1.1,0.5-1.6,0.8-2.7
				c0.4-1.5,0.5-2.2,0.9-3.6c0.5-2.9,0.7-4.3,1.2-7.1c0.4-2.9,0.8-5,1.2-6.3c0.8-2.4,1.1-3.6,1.9-6c0.1-0.3,0.5-0.5,1-0.7
				c0.4-0.2,0.7-0.3,1-0.3c0.2,0,0.4-0.1,0.4-0.1c0,0,0,0,0.1,0.1c-0.2,0.1-0.2,0.1-0.4,0.2c-0.2,0.1-0.2,0.2-0.2,0.4
				c0.2,0.4,1.1,1,2.7,2c1,0.5,1.5,0.7,2.5,1.2c0.9,0.5,2.6,1.6,4.9,3.4c1.7,1.4,4.2,2.9,7.5,4.5c1.1,0.5,2.3,1.2,3.6,2.1
				c1.8,1.2,2.7,2,2.9,2.5c-1.1,3.4-1.7,5-3,8.4c-1.2,3.3-1.8,5-3.2,8.3c-0.2,1.8-0.4,2.7-0.6,4.6c-0.8,0.7-1.2,1-2,1.7
				C306,480.9,303.5,479.9,298.7,477.8z M297.7,451.8c-1.1,6.7-1.7,10-3.1,16.8c1.3,0.4,3,1.2,5.3,2.4c2.3,1.2,4.1,2,5.3,2.6
				c1.3,0.6,2.3,1,3,1.3c0.7-1.7,1.1-2.5,1.7-4.1c0.7-1.9,1-2.8,1.7-4.7c0.3-0.9,0.5-1.3,0.8-2.2c0.4-0.8,0.5-1.2,0.9-2.1
				c-2-1.4-3-2.1-4.9-3.5c-2.2-1.5-3.3-2.2-5.5-3.7C301.2,453.5,299.4,452.5,297.7,451.8z"/>
		</g>
	</g>
	<path fill="#010202" d="M241.7,456l-2.5,0.9l-1.6,0.6l2.5,7.2c0,0,1.5-2.4,1.3-2.7c-0.2-0.3,0.4-3,0.4-3L241.7,456z"/>
</g>
<g>
	<g>
		<path fill="#040506" d="M80.6,415.3c1.1-1.4,1.6-2.1,2.7-3.6c1.8-2.1,2.8-3.2,4.6-5.4c0.9-1.2,1.4-1.8,2.3-3
			c0.8-1.1,1.2-1.7,2-2.9c1.2-1.8,1.8-2.8,3-4.6c0.4-0.6,0.9-1.5,1.6-2.5c0.6-1,1.1-1.7,1.3-2.1c0.9-1.3,1.4-1.9,2.3-3.2
			c1-1.7,1.6-2.6,2.6-4.3c1.3,0.4,2,0.6,3.3,1c0.2,0.3,0.9,1.6,2,3.7c1.6,3.2,2.5,4.7,4.3,7.8c0.6,0.9,0.9,1.4,1.5,2.4
			c1.1,1.8,1.6,2.7,2.7,4.4c-0.1,0.6-0.2,0.9-0.3,1.5c-0.2,0.5-0.6,0.9-1.2,1.2c-0.5,0.3-1.2,0.4-2,0.4c-0.6-0.5-0.8-0.8-1.4-1.3
			c-0.9-1.7-2.2-3.8-3.8-6.5c-1-1.5-1.5-2.2-2.4-3.7c-0.7-1-1-1.5-1.7-2.5c-2.1,3.6-3.1,5.4-5.1,9c1.5,0.8,2.8,1.8,4.1,2.7
			c1.3,1,2.4,2,3.4,3.1c0.1,0.3,0.1,0.7-0.1,1.2c-0.2,0.4-0.3,0.6-0.4,0.6c-0.3,0.4-0.5,0.6-0.8,1c-0.5,0-0.8,0-1.3,0
			c-0.4,0-0.9-0.1-1.3-0.4c-1.3-1.5-2.8-2.7-4.6-3.7c-0.7-0.3-1-0.5-1.7-0.8c-2.7,3.9-4.1,5.8-6.8,9.6c1.7,0.4,3.5,0.7,5.4,0.7
			c2.2,0,3.2,0,5.4,0c2.2,0,3.2,0.1,5.4,0c0.8,0.6,1.5,1.4,2.1,2.4c0.1,0.4,0,0.7-0.2,1.1c-0.2,0.4-0.6,0.8-1.2,1.1
			c-0.3,0.2-0.5,0.3-0.9,0.5c-0.6,0-0.8-0.1-1.4-0.1c-1.2,0-1.8-0.1-3-0.1c-7.3-0.5-11.1-0.9-18.6-2C81.7,417,81.3,416.4,80.6,415.3
			z"/>
		<path fill="#040506" d="M131.7,436.3c-1.9-1.9-2.8-2.9-4.6-4.9c-0.3-0.1-0.5-0.2-0.8-0.3c-0.3-0.1-0.8-0.2-1.7-0.5
			c-1.3-0.4-1.9-0.6-3.2-1c-0.3-0.1-0.7-0.3-1-0.4c-0.4-0.2-0.6-0.4-0.8-0.5c-1-0.5-1.6-0.8-2.6-1.3c-0.7-0.3-1-0.6-0.8-1
			c0.1-0.1,0.2-0.2,0.3-0.3c0.3-0.1,0.4-0.2,0.7-0.3c-0.1-0.5,0-1,0.2-1.6c0.1-0.3,0.8-0.6,2.1-1c1-0.3,1.5-0.5,2.4-0.8
			c1.8-0.4,3.4-0.8,4.8-1.3c0.9-0.3,1.4-0.5,2.3-0.8c0.9-0.4,1.4-0.6,2.3-1c-0.3-0.1-0.5-0.2-0.9-0.4c-1.1-0.3-1.6-0.5-2.7-0.8
			c-0.7-0.2-1-0.3-1.7-0.6c-0.3-0.1-1.1-0.3-2.6-0.5c-0.6-0.1-1-0.2-1.3-0.3c-0.4-0.4-0.7-0.8-0.9-1.3c0.1-0.4,0.1-0.6,0.2-1.1
			c0.2-0.4,0.3-0.6,0.6-0.9c0.2-0.1,0.3-0.1,0.4-0.1c0.3-0.1,0.7-0.2,1.1-0.3c0.9-0.2,1.4-0.4,1.6-0.5c3.6-1.8,5.4-2.7,8.9-4.6
			c1.8-1,3.5-1.7,4.9-2c1.2-0.9,1.8-1.3,3-2.2c1.7-0.3,2.6-0.5,4.3-0.8c1,0.4,1.4,0.6,2.4,0.9c-0.1,1.2-0.1,1.8-0.2,3
			c-0.8,0.6-1.1,0.9-1.9,1.6c-1.9,1.1-2.8,1.6-4.7,2.6c-0.9,0.4-1.4,0.6-2.3,1c-0.8,0.4-1.3,0.6-2.1,1.1c-1.3,0.7-2,1.1-3.4,1.8
			c1.6,1,2.4,1.5,4.1,2.5c0.2,0,0.3,0.1,0.5,0.1c0.7,0.5,1.2,1.2,1.5,2.1c0,0.4,0,0.6,0,1.1c0,0.5-0.1,1-0.2,1.5
			c-4.2,1.9-6.3,2.8-10.7,4.5c2.1,1.3,3.1,2,5.2,3.3c0.4,0.8,1,1.7,1.8,2.6c0.6,0.7,1.5,1.4,2.5,2.2c1,0.6,1.8,1.6,2.6,3.1
			c0.5,1.2,0.7,1.8,1.2,3c-0.4,1.3-0.6,1.9-1,3.2c-1.3-0.4-2-0.6-3.4-1c-0.9-0.6-1.4-1-2.3-1.6c-0.2-0.1-0.3-0.3-0.4-0.8
			c-0.1-0.4-0.7-0.8-1.6-1.1c-0.8-0.3-1.3-0.8-1.4-1.7C132,437,131.9,436.5,131.7,436.3z"/>
		<path fill="#040506" d="M157.7,448.2c-0.1-0.3-0.1-0.6-0.1-0.8c0-0.2,0-0.5,0-0.6c0.1-0.5,0.2-0.7,0.3-1.2
			c0.1-0.6,0.2-0.9,0.3-1.1s0.2-0.2,0.4-0.2c0.3-0.9,0.5-1.4,0.8-2.4c0.2-0.7,0.3-1.1,0.5-1.8c0.5-2,0.7-3,1.2-4.9
			c0.5-2.6,0.7-3.9,1.2-6.5c0.8-3,1.2-4.5,2-7.6c-2.1,2-3.2,3-5.4,4.9c-0.8,0.6-1.3,0.9-2.1,1.4c-0.8,0.5-1.7,0.7-2.7,0.7
			c-0.6-0.5-1.2-1.1-1.7-1.8c-0.3-0.7-0.4-1.4-0.1-2.3c1.6-1.3,2.3-2,3.9-3.4c1-0.9,1.5-1.3,2.5-2.2c0.8-0.7,1.2-1,2.1-1.7
			c1.3-1.2,2.7-2.3,4.1-3.4c1-0.8,1.5-1.3,2.5-2.1c0.4-0.7,0.6-1.1,1.1-1.8c0.9,0.1,1.4,0.2,2.4,0.3c0.1,0.1,0.1,0.3,0.1,0.4
			c0.2,0.4,0.3,0.8,0.5,1.1c0.2,0.4,0.3,0.7,0.3,1.1c-0.1,0.4,0.2,0.9,0.8,1.6c0.4,0.3,0.5,0.5,0.9,0.9c0.2,0.2,0.4,0.8,0.8,1.9
			c0.3,0.9,0.6,1.6,1,2.1c1.2,1.9,1.8,2.9,3.1,4.8c1.1,1.7,1.6,2.6,2.8,4.3c0,0.3,0,0.5,0,0.8c0,0.3,0,0.5,0,0.8
			c-0.1,0.5-0.3,0.9-0.8,1.1c-0.6,0.3-0.8,0.5-1.4,0.8c-0.1,0.1-0.5,0.1-1,0.2c-0.3,0-0.5-0.2-0.8-0.4c-0.2-0.2-0.6-0.6-1.3-1.2
			c-1.1-1-2-2-2.5-2.9c-1.5-2.5-2.2-3.8-3.6-6.4c-0.6,3.9-1,5.9-1.6,9.8c-0.2,1.5-0.4,2.3-0.6,3.8c-0.3,1.7-0.5,2.6-0.8,4.3
			c-0.5,2.6-0.7,3.9-1.2,6.5c-0.3,1.5-0.4,2.3-0.7,3.8c-0.9,0.2-1.3,0.3-2.2,0.4c-0.4,0.1-0.6,0.1-1.1,0.1c-0.9,0-1.6,0-2.2-0.1
			C158.3,449.1,157.8,448.7,157.7,448.2z"/>
		<path fill="#040506" d="M193.8,445.4c-1-0.5-1.8-1.2-2.4-2.1c-0.6-1-0.9-1.5-1.4-2.5c0.2-2.9,0.2-4.4,0.4-7.3
			c0.1-1.8,0.2-2.6,0.3-4.4c0.1-1.7,0.2-2.5,0.3-4.2c0.2-3.2,0.4-4.8,0.6-8c0-1.6,0-2.4,0.1-3.9c1.2-0.4,1.8-0.7,3-1.1
			c0.9,0.4,1.4,0.7,2.3,1.1c-0.4,10.7-0.6,16-0.9,26.6c1.3,1.4,1.9,2.1,3.2,3.4c3.4,1.5,5.1,2.2,8.6,3.5c0.1-1.8,0.1-2.6,0.2-4.4
			c-0.1-1.2-0.2-1.9-0.3-3.1c-0.1-1.3-0.2-2-0.3-3.3c-0.1-2-0.1-3-0.2-4.9c-0.1-1.7-0.1-2.5-0.2-4.2c-0.4-5.4-0.5-8.1-0.9-13.5
			c0-0.3,0.1-0.5,0.4-0.7c0.3-0.1,0.7-0.2,1.1-0.2c0.6,0,1.4,0.1,2.5,0.3c0.5,0.1,0.8,0.2,1.4,0.3c0,1.9,0,2.9,0,4.8
			c0.1,1,0.2,1.5,0.3,2.5c0.1,1.4,0.1,2.1,0.2,3.5c0,0.3,0,0.4,0,0.7c0,0.2,0,0.3,0,0.6c0,0.2,0,0.3,0,0.5c0,0.6,0,0.9,0,1.5
			c0,0.5,0,0.7,0,1.2c0,0.3,0,0.6,0,0.8c0,0.2,0,0.5,0.1,0.9c0.1,0.7,0.2,1.1,0.3,1.8c0.1,0.6,0.1,0.9,0.2,1.5c0,0.6,0,0.9,0,1.5
			c0.2,2.8,0.2,4.2,0.4,6.9c0,0.3,0,0.5,0,0.8c0,0.3,0,0.5,0,0.8c0,0.3,0,0.4,0,0.7c0,0.2,0,0.4,0,0.6c0,0.2,0,0.3,0,0.5
			c0,0.2,0,0.3,0,0.4c0,0.5,0,0.8,0,1.4s0,0.8,0,1.4c0,0.2,0,0.2,0,0.4c-0.1,1.4-0.2,2-0.3,3.4c-0.8,0.4-1.2,0.6-2,1
			c-4.8-1.2-8.7-2.6-11.7-4C197.2,447.6,196.1,446.9,193.8,445.4z"/>
		<path fill="#040506" d="M233.6,451.4c-1.2,0.2-1.8,0.3-3,0.5c-0.4,0-0.7-0.2-0.9-0.8c-0.2-0.5-0.4-1-0.4-1.4
			c-0.1-0.4-0.1-0.7-0.1-1c-0.1-0.9-0.1-1.4-0.2-2.3c0-0.8,0-1.2,0-2c-0.2-2.6-0.3-4-0.4-6.6c0-1.2,0-1.9,0-3.1
			c-0.1-1-0.2-1.6-0.3-2.6c-0.1-2.3-0.2-3.4-0.3-5.7c-0.2-2.3-0.3-3.5-0.5-5.8c-0.1-1.7-0.2-2.6-0.3-4.3c0-1.9,0-2.9,0-4.8
			c3.1,1.6,4.7,2.3,7.9,3.8c0,0,0,0.1,0,0.1c1,0.5,1.5,0.8,2.5,1.3c1.4,0.7,2.2,1,3.6,1.7c2.6,1.1,3.9,1.7,6.5,2.8
			c2.3,1.1,4.3,2.3,5.8,3.6c0.2,0.5,0.4,0.7,0.6,1.1c0.1,0.4,0.2,0.6,0.3,1c0.2,0.7,0.1,1.4-0.2,2.1c-0.6,1-0.9,1.5-1.5,2.6
			c-0.8,1.3-1.3,1.9-2.2,3.2c-1.7,2.3-2.5,3.5-4.3,5.7c-1.5,1.9-2.9,3.8-4.3,5.7C238.8,448.4,237.1,449.4,233.6,451.4z M231.5,418.4
			c0.4,3.5,0.6,5.3,1.1,8.8c0.2,1.7,0.2,2.5,0.4,4.2c0.3,2.1,0.4,3.1,0.7,5.2c0.5,3.6,0.7,5.4,1.1,9.1c2.1-2.3,3.2-3.5,5.2-5.9
			c2.1-2.5,3.8-4.6,4.9-6.2c1.5-2.1,2.8-4.3,4-6.5c-2.4-1.3-5.3-2.7-8.7-4.3C236.6,421,234.9,420.2,231.5,418.4z"/>
		<path fill="#040506" d="M273.4,443.7c-0.5-2-0.7-3.1-1.2-5.1c0.1-0.5,0.1-0.8,0.2-1.4c-0.6-2-0.9-3-1.5-5.1
			c-0.6-1.9-0.8-2.8-1.4-4.6c-1.1-4-1.6-5.9-2.6-9.9c-1.1-3.6-1.6-5.4-2.7-8.9c-0.5-1.8-0.8-2.7-1.4-4.5c2-0.6,3-0.9,4.9-1.6
			c1.7,4.9,2.5,7.3,4.2,12.2c1,3.4,1.6,5.2,2.6,8.6c0.9,2.8,1.4,4.3,2.4,7.1c0.4,0.7,0.6,1,1,1.7c0.2,0.6,0.4,0.9,0.6,1.4
			c0.1,0.5,0.2,0.8,0.3,1.4c-0.1,0.5-0.1,0.7-0.2,1.2c0.6,2.1,0.8,3.2,1.4,5.3C277.3,442.4,276,442.9,273.4,443.7z"/>
		<path fill="#040506" d="M303.6,422.7c-1.4-0.9-2.1-1.3-3.5-2.2c-1.1-0.7-2.1-1.1-3.1-1.4c-2.3-0.6-3.9-1.5-4.9-2.5
			c0.2-1.1,0.4-1.6,0.6-2.7c0.3-1.5,0.4-2.2,0.6-3.6c0.3-2.8,0.4-4.2,0.6-7.1c0.2-2.8,0.4-4.9,0.6-6.3c0.6-2.4,0.8-3.6,1.3-6
			c0.1-0.3,0.4-0.5,0.9-0.8c0.4-0.2,0.7-0.3,0.9-0.4c0.2-0.1,0.4-0.1,0.4-0.1c0,0,0,0,0.1,0.1c-0.1,0.1-0.2,0.1-0.4,0.2
			c-0.2,0.1-0.2,0.2-0.1,0.4c0.2,0.4,1.1,0.9,2.9,1.6c1,0.4,1.5,0.5,2.6,0.9c1,0.3,2.7,1.2,5.3,2.7c1.9,1.1,4.5,2.3,7.9,3.4
			c1.1,0.4,2.4,0.9,3.8,1.5c1.9,0.9,2.9,1.6,3.1,2c-0.8,3.4-1.2,5.2-2.2,8.6c-0.9,3.4-1.4,5.2-2.4,8.6c-0.1,1.8-0.1,2.7-0.2,4.6
			c-0.7,0.8-1.1,1.1-1.8,1.9C311.3,424.9,308.7,424.2,303.6,422.7z M300.4,397.5c-0.4,6.6-0.8,10-1.7,16.7c1.3,0.2,3.2,0.8,5.6,1.7
			c2.4,0.9,4.3,1.5,5.6,1.9c1.3,0.4,2.4,0.7,3.2,0.9c0.6-1.7,0.9-2.6,1.4-4.3c0.5-1.9,0.8-2.9,1.3-4.8c0.3-0.9,0.4-1.3,0.6-2.2
			c0.3-0.9,0.4-1.3,0.7-2.1c-2.1-1.1-3.2-1.6-5.3-2.7c-2.4-1.1-3.5-1.7-5.8-2.9C304,398.8,302.2,398.1,300.4,397.5z"/>
	</g>
</g>
<g>
	<g>
		<g>
			<path fill="#010202" d="M209.4,2.9L209.4,2.9l-8.9,0C92.1,5.3,5,93.9,5,202.9c0,59.6,26.1,113.2,67.5,149.8
				c35.3,31.2,81.6,50.1,132.4,50.1c50.8,0,97.2-18.9,132.4-50.1c41.4-36.6,67.5-90.2,67.5-149.8C404.9,93.9,317.8,5.3,209.4,2.9z
				 M329.9,344.2l-7.9-0.4l-76.6-0.2l-0.2-52.1l39.7-0.2c2.9,1.7,6.6,2.8,11.6,2.8c13.5,0,22.8-10.2,22.8-22.8
				c0-12.6-6-21.2-22.8-22.8c-18.9-2-58.6,12.8-75.2,12.2c-12.8-0.4-33.9-5.3-46-24.4c0,0,13.4-20.1,48.4-21.6
				c28.2-1.2,54.1,14.9,90.5,19.1c15.6,1.8,36.4-3.9,49.5-17.3c-11.7,8.3-25.9,12.2-41.8,10.2c-49.3-6.2-64.8-35.3-93.4-47
				c-28.1-11.4-55.6-5.9-55.6-5.9c9.8-15.2,28.3-24.3,48.4-24.3c13.9,0,28.5,6.5,43,21.3c41.7,43.5,71.5,38.8,71.5,38.8
				c24.8-1,38.9-21.3,38.9-46.3c0-25-20.7-38.8-33.2-38.8c-15.9,0-25.1,5.3-29.4,14L206.7,77.7c0-13.9-11.2-24.3-25.1-24.3
				c-13.9,0-25.1,10.4-25.1,24.3L127,90.2l-4,2.1l-37.9,20.1c0,0-0.8-22.4,3.3-36.2C72.5,93.8,53,109.2,46.2,139.9
				c35.6-0.5,78.9-0.2,78.9-0.2l1.3,3l-1.4,201.5c-1.6,0-45,0-45,0C41,309.6,16.4,259.1,16.4,202.9c0-102.9,78.2-188.6,190.2-188.6
				l0.7-2.9l-0.7,2.9c109.1,0,187,86,187,188.5C393.6,259.1,369,309.6,329.9,344.2z M173,81.5c0-4.5,3.7-8.2,8.2-8.2
				s8.2,3.7,8.2,8.2c0,4.5-3.7,8.2-8.2,8.2S173,86,173,81.5z"/>
		</g>
	</g>
	<path fill="#010202" d="M212.7,261.1l-3.5-19.5l-14.1,13.2C195.1,254.8,201.7,259.5,212.7,261.1z"/>
	<path fill="#010202" d="M209.9,150.3l9.7,16.6l8.8-17.4C228.3,149.4,222.8,146.8,209.9,150.3z"/>
	<path fill="#010202" d="M258.5,164.5l-3.6,20.2l17.8-6.5C272.6,178.2,267.1,174.3,258.5,164.5z"/>
	<path fill="#010202" d="M256.9,255.1l-13-15.5l-5.3,20.1C238.6,259.8,241.3,259.8,256.9,255.1z"/>
	<path fill="#010202" d="M297.9,250.1l-8.2-14.4l-8,14.8C281.6,250.5,288.2,249.2,297.9,250.1z"/>
	<path fill="#010202" d="M294.8,194.3l1.3,16.1l13.3-9.1C309.4,201.3,303.1,199.4,294.8,194.3z"/>
	<path fill="#010202" d="M137.1,169.8l-57.9,33.8l60.8,30.7C140,234.3,149.2,215.1,137.1,169.8z"/>
	<path fill="#010202" d="M129.9,257l-41.1,24l43.2,21.8C132,302.8,138.5,289.2,129.9,257z"/>
</g>
</svg>
